<svg xmlns="http://www.w3.org/2000/svg"  viewBox="0 0 64 64"><defs fill="#183153" /><path  d="m14.72,36.99l-5.58,2.31c-.74-2.3-1.14-4.76-1.14-7.31s.4-5,1.14-7.31l5.58,2.31c-.46,1.59-.72,3.26-.72,4.99s.26,3.41.72,4.99Zm1.52,3.7l-5.57,2.31c2.29,4.42,5.91,8.04,10.33,10.33l2.31-5.57c-2.97-1.64-5.43-4.1-7.07-7.07Zm-5.57-19.69l5.57,2.31c1.64-2.97,4.1-5.42,7.07-7.07l-2.31-5.57c-4.42,2.29-8.04,5.91-10.33,10.33Zm37.09,2.31l5.57-2.31c-2.29-4.42-5.91-8.04-10.33-10.33l-2.31,5.57c2.97,1.64,5.43,4.1,7.07,7.07Zm7.1,1.39l-5.58,2.31c.46,1.59.72,3.26.72,4.99s-.26,3.41-.72,4.99l5.58,2.31c.74-2.3,1.14-4.76,1.14-7.31s-.4-5-1.14-7.31Zm-14.17,23.06l2.31,5.57c4.42-2.29,8.04-5.91,10.33-10.33l-5.57-2.31c-1.64,2.97-4.1,5.43-7.07,7.07ZM24.69,9.14l2.31,5.58c1.59-.46,3.26-.72,4.99-.72s3.41.26,4.99.72l2.31-5.58c-2.3-.74-4.76-1.14-7.31-1.14s-5,.4-7.31,1.14Zm7.31,40.86c-1.73,0-3.41-.26-4.99-.72l-2.31,5.58c2.3.74,4.76,1.14,7.31,1.14s5-.4,7.31-1.14l-2.31-5.58c-1.59.46-3.26.72-4.99.72Z" fill="#183153" /></svg>